<svg width="59" height="59" viewBox="0 0 59 59" fill="none" xmlns="http://www.w3.org/2000/svg">
<path d="M-0.00292969 14.3185C-0.00292969 6.40927 6.40878 -0.00244141 14.318 -0.00244141H58.9994V44.679C58.9994 52.5882 52.5877 58.9999 44.6785 58.9999H-0.00292969V14.3185Z" fill="black"/>
<path fill-rule="evenodd" clip-rule="evenodd" d="M56.4217 2.57533H14.318C7.83245 2.57533 2.57484 7.83294 2.57484 14.3185V56.4222H44.6785C51.1641 56.4222 56.4217 51.1646 56.4217 44.679V2.57533ZM14.318 -0.00244141C6.40878 -0.00244141 -0.00292969 6.40927 -0.00292969 14.3185V58.9999H44.6785C52.5877 58.9999 58.9994 52.5882 58.9994 44.679V-0.00244141H14.318Z" fill="#ED1E79"/>
<path d="M21.8107 30.7672L13.3496 36.8108V24.7236L21.8107 30.7672ZM44.9779 19.4858L29.1973 30.7672L13.3496 19.4858V15.3895H44.9779V19.4858ZM44.9779 24.7236V36.8108L36.5168 30.7672L44.9779 24.7236ZM34.7037 32.0431L44.9779 39.4297V43.4588H13.3496V39.4297L23.6238 32.0431L29.1973 36.005L34.7037 32.0431Z" fill="white"/>
</svg>
