<?xml version="1.0" encoding="UTF-8"?><svg id="Layer_1" xmlns="http://www.w3.org/2000/svg" viewBox="0 0 126.53 124.71"><defs><style>.cls-1{fill:#000;}.cls-1,.cls-2{stroke-width:0px;}.cls-2{fill:#ed1e79;}</style></defs><path class="cls-2" d="M108.57,95.86l10.54.24-5.56-8.96c-5.66-9.11-3.61-21.05,4.76-27.76l8.23-6.6-10.02-3.29c-2.55-.84-4.89-2.13-6.94-3.83-6-4.99-8.78-12.84-7.25-20.49l2.06-10.34-9.79,3.92c-7.24,2.9-15.47,1.6-21.47-3.38-2.05-1.71-3.75-3.77-5.04-6.12L63.01,0l-4.98,9.3c-5.06,9.46-16.42,13.65-26.42,9.76l-9.83-3.83,2.16,10.32c2.2,10.5-3.81,21.01-13.96,24.46l-9.99,3.38,8.29,6.52c.15.12.3.24.45.37,3.9,3.24,6.52,7.79,7.36,12.81.84,5.02-.15,10.19-2.79,14.54l-5.47,9.01,10.54-.34c5.19-.17,10.25,1.57,14.24,4.89,3.99,3.32,6.63,7.97,7.42,13.11l1.6,10.42,7.86-7.03c3.8-3.4,8.69-5.32,13.78-5.41,5.08-.09,10.03,1.65,13.94,4.89.15.12.3.25.44.38l7.92,6.96,1.5-10.44c1.53-10.62,10.76-18.44,21.49-18.2Z"/><polygon class="cls-1" points="85.01 55.6 85 50.47 75.27 53.65 75.27 60.29 85 63.47 85.01 58.34 83.36 58.03 83.36 55.91 85.01 55.6"/><path class="cls-1" d="M78.49,81.83c.14-9.25-6.3-16.89-14.48-17.11-8.19-.22-15.03,7.06-15.39,16.3l29.87.81Z"/></svg>