<svg width="53" height="70" viewBox="0 0 53 70" xmlns="http://www.w3.org/2000/svg">
<path d="M53 52.8682L53 17.1303L0.0333176 -2.31525e-06L-1.20714e-06 27.6162L8.96459 29.2926L8.96459 40.7074L-1.85266e-06 42.3838L0.0333145 70L53 52.8682ZM17.6884 34.9992C17.6884 30.2305 22.0821 26.3592 27.5284 26.2963L27.5284 43.7007C22.0821 43.6378 17.6884 39.768 17.6884 34.9992ZM33.1216 47.9406L30.1016 47.9376L31.9751 42.27L35.8826 42.27L37.7561 47.9376L34.7361 47.9406L34.5528 46.9818L33.3048 46.9818L33.1216 47.9406Z" fill="#ED1E79"/>
<path d="M44.7187 21.0324L44.7187 49.2947L16.7281 49.2947L16.7281 21.0324L44.7187 21.0324Z" fill="#ED1E79"/>
</svg>
