<svg width="53" height="70" viewBox="0 0 53 70" xmlns="http://www.w3.org/2000/svg">
<path d="M-2.31094e-06 17.1318L-7.4879e-07 52.8697L52.9667 70L53 42.3838L44.0354 40.7074L44.0354 29.2926L53 27.6162L52.9667 -2.31525e-06L-2.31094e-06 17.1318ZM35.3116 35.0007C35.3116 39.7695 30.9179 43.6408 25.4716 43.7037L25.4716 26.2993C30.9179 26.3622 35.3116 30.232 35.3116 35.0007ZM19.8784 22.0594L22.8984 22.0624L21.0249 27.73L17.1174 27.73L15.2439 22.0624L18.2639 22.0594L18.4472 23.0182L19.6951 23.0182L19.8784 22.0594Z " fill="#ED1E79"/>
<path d="M8.28125 48.9676L8.28125 20.7053L36.2719 20.7053L36.2719 48.9676L8.28125 48.9676Z" fill="#ED1E79" />
</svg>
