<svg width="62" height="59" viewBox="0 0 62 59" fill="none" xmlns="http://www.w3.org/2000/svg">
<path d="M0.904785 14.3185C0.904785 6.40927 7.45588 -0.00244141 15.5371 -0.00244141H61.1898V44.679C61.1898 52.5882 54.6387 58.9999 46.5575 58.9999H0.904785V14.3185Z" fill="#ED1E79"/>
<path fill-rule="evenodd" clip-rule="evenodd" d="M58.556 2.57533H15.5371C8.9105 2.57533 3.5386 7.83294 3.5386 14.3185V56.4222H46.5575C53.1841 56.4222 58.556 51.1646 58.556 44.679V2.57533ZM15.5371 -0.00244141C7.45588 -0.00244141 0.904785 6.40927 0.904785 14.3185V58.9999H46.5575C54.6387 58.9999 61.1898 52.5882 61.1898 44.679V-0.00244141H15.5371Z" fill="#ED1E79"/>
<path d="M29.3299 19.9483C30.0015 20.93 30.3373 22.1699 30.3373 23.6681C30.3373 25.1664 30.0015 26.3547 29.3299 27.233C29.1232 27.4913 28.8907 27.7238 28.6324 27.9304C28.3741 28.1371 28.0383 28.3696 27.625 28.6279C28.8132 29.0929 29.6657 29.8162 30.1823 30.7978C30.8023 31.7277 31.1123 32.8902 31.1123 34.2851C31.1123 35.68 30.7765 36.9716 30.1048 38.1599C29.6399 38.9865 29.1232 39.6323 28.5549 40.0973C27.8833 40.6656 27.0308 41.0789 25.9976 41.3372C25.5326 41.4406 25.0418 41.5181 24.5251 41.5697C24.0085 41.6214 23.466 41.6472 22.8977 41.6472H12.8232V17.3135H23.5952C26.3334 17.4168 28.2449 18.2951 29.3299 19.9483ZM18.9454 21.4208V27.4655H22.6652C23.1819 27.4655 23.6339 27.375 24.0214 27.1942C24.4089 27.0134 24.7576 26.8197 25.0676 26.613C25.6359 26.1997 25.9201 25.4247 25.9201 24.2881C25.9201 23.7198 25.8297 23.229 25.6488 22.8157C25.468 22.4024 25.1709 22.1182 24.7576 21.9632C24.396 21.8082 24.0085 21.6791 23.5952 21.5758C23.1819 21.4724 22.6911 21.4208 22.1228 21.4208H18.9454ZM18.9454 31.4952V37.6174H22.6652C23.5435 37.6174 24.2926 37.4366 24.9126 37.075C25.8942 36.5583 26.385 35.5509 26.385 34.0526C26.385 33.381 26.2688 32.8773 26.0363 32.5414C25.8038 32.2056 25.4551 31.9086 24.9901 31.6502C24.7318 31.5469 24.4089 31.4952 24.0214 31.4952H18.9454ZM45.2941 24.2106C46.3273 24.7273 47.2056 25.5797 47.9289 26.768C48.2389 27.2846 48.4972 27.8142 48.7039 28.3567C48.9105 28.8991 49.0655 29.532 49.1689 30.2553C49.1689 30.462 49.1818 30.7461 49.2076 31.1078C49.2334 31.4694 49.2464 31.8311 49.2464 32.1927C49.2464 32.6577 49.2722 33.1227 49.3239 33.5876H38.1644C38.2161 34.6209 38.3711 35.4088 38.6294 35.9513C38.8877 36.4937 39.2752 36.9458 39.7918 37.3074C40.0502 37.5141 40.3731 37.682 40.7605 37.8112C41.148 37.9403 41.5484 38.0049 41.9617 38.0049C42.4267 38.0049 42.84 37.9016 43.2017 37.6949C43.5633 37.4883 43.8991 37.2558 44.2091 36.9975C44.3641 36.8425 44.5062 36.7521 44.6353 36.7262C44.7645 36.7004 44.8807 36.3258 44.9841 35.6025H49.0914C49.0397 36.3258 48.8847 36.92 48.6264 37.3849C48.3681 37.8499 48.0322 38.3666 47.6189 38.9349C46.8956 39.7615 46.0561 40.4073 45.1003 40.8723C44.1445 41.3372 43.0725 41.5697 41.8842 41.5697C39.8177 41.5697 38.0094 40.8723 36.4595 39.4773C34.9096 38.0824 34.1346 35.8092 34.1346 32.6577C34.1346 29.7128 34.8321 27.4138 36.227 25.7605C37.622 24.2106 39.456 23.4357 41.7292 23.4357C43.0725 23.4357 44.2608 23.694 45.2941 24.2106ZM39.3269 28.4729C39.0685 28.8345 38.849 29.1704 38.6682 29.4803C38.4873 29.7903 38.3453 30.462 38.2419 31.4952H45.1391C45.0874 30.462 44.9841 29.7774 44.8291 29.4416C44.6741 29.1058 44.4158 28.7829 44.0541 28.4729C43.4342 27.8529 42.6592 27.5429 41.7292 27.5429C40.6443 27.5429 39.8435 27.8529 39.3269 28.4729ZM45.2941 21.4208H37.157V17.3135H45.2941V21.4208Z" fill="#0D0813"/>
</svg>
