<svg width="59" height="59" viewBox="0 0 59 59" fill="none" xmlns="http://www.w3.org/2000/svg">
<path d="M-0.00292969 14.3185C-0.00292969 6.40927 6.40878 -0.00244141 14.318 -0.00244141H58.9994V44.679C58.9994 52.5882 52.5877 58.9999 44.6785 58.9999H-0.00292969V14.3185Z" fill="#ED1E79"/>
<path fill-rule="evenodd" clip-rule="evenodd" d="M56.4217 2.57533H14.318C7.83245 2.57533 2.57484 7.83294 2.57484 14.3185V56.4222H44.6785C51.1641 56.4222 56.4217 51.1646 56.4217 44.679V2.57533ZM14.318 -0.00244141C6.40878 -0.00244141 -0.00292969 6.40927 -0.00292969 14.3185V58.9999H44.6785C52.5877 58.9999 58.9994 52.5882 58.9994 44.679V-0.00244141H14.318Z" fill="#ED1E79"/>
<path d="M21.8102 30.7671L13.3491 36.8107V24.7235L21.8102 30.7671ZM44.9774 19.4857L29.1968 30.7671L13.3491 19.4857V15.3895H44.9774V19.4857ZM44.9774 24.7235V36.8107L36.5163 30.7671L44.9774 24.7235ZM34.7032 32.043L44.9774 39.4296V43.4587H13.3491V39.4296L23.6233 32.043L29.1968 36.0049L34.7032 32.043Z" fill="#0D0813"/>
</svg>
