<svg width="60" height="59" viewBox="0 0 60 59" fill="none" xmlns="http://www.w3.org/2000/svg">
<path d="M0.0927734 14.3186C0.0927734 6.40934 6.50449 -0.00238037 14.4137 -0.00238037H59.0951V44.679C59.0951 52.5883 52.6834 59 44.7742 59H0.0927734V14.3186Z" fill="#ED1E79"/>
<path fill-rule="evenodd" clip-rule="evenodd" d="M56.5174 2.57539H14.4137C7.92815 2.57539 2.67055 7.833 2.67055 14.3186V56.4222H44.7742C51.2598 56.4222 56.5174 51.1646 56.5174 44.679V2.57539ZM14.4137 -0.00238037C6.50449 -0.00238037 0.0927734 6.40933 0.0927734 14.3186V59H44.7742C52.6834 59 59.0951 52.5883 59.0951 44.679V-0.00238037H14.4137Z" fill="#ED1E79"/>
<path d="M41.5285 26.9158H38.7985C39.0205 27.7148 39.1315 28.5139 39.1315 29.3129C39.1315 30.6446 38.8762 31.9097 38.3657 33.1083C37.8552 34.3068 37.1561 35.35 36.2683 36.2378C35.3805 37.1256 34.3373 37.8248 33.1387 38.3353C31.9402 38.8458 30.6751 39.101 29.3433 39.101C28.0116 39.101 26.7576 38.8458 25.5812 38.3353C24.4049 37.8248 23.3728 37.1256 22.485 36.2378C21.5972 35.35 20.898 34.3068 20.3875 33.1083C19.8771 31.9097 19.6218 30.6446 19.6218 29.3129C19.6218 28.5139 19.7328 27.7148 19.9547 26.9158H17.1581V40.2995C17.1581 40.6547 17.2802 40.9432 17.5244 41.1652C17.7685 41.3871 18.0681 41.4981 18.4233 41.4981H40.33C40.6851 41.4981 40.9737 41.3871 41.1956 41.1652C41.4176 40.9432 41.5285 40.6547 41.5285 40.2995V26.9158ZM41.5285 18.3928C41.5285 18.0377 41.4176 17.738 41.1956 17.4939C40.9737 17.2497 40.6851 17.1277 40.33 17.1277H36.6678C36.3127 17.1277 36.0241 17.2497 35.8022 17.4939C35.5802 17.738 35.4692 18.0377 35.4692 18.3928V21.9884C35.4692 22.3436 35.5802 22.6432 35.8022 22.8873C36.0241 23.1315 36.3127 23.2536 36.6678 23.2536H40.33C40.6851 23.2536 40.9737 23.1315 41.1956 22.8873C41.4176 22.6432 41.5285 22.3436 41.5285 21.9884V18.3928ZM29.3433 23.2536C27.6565 23.2536 26.2249 23.8417 25.0486 25.0181C23.8722 26.1944 23.284 27.626 23.284 29.3129C23.284 30.1563 23.4394 30.9553 23.7501 31.71C24.0609 32.4646 24.4937 33.1194 25.0486 33.6743C25.6034 34.2291 26.2471 34.6619 26.9795 34.9727C27.712 35.2834 28.4999 35.4388 29.3433 35.4388C30.1868 35.4388 30.9858 35.2834 31.7404 34.9727C32.4951 34.6619 33.1498 34.2291 33.7047 33.6743C34.2596 33.1194 34.6924 32.4646 35.0031 31.71C35.3139 30.9553 35.4692 30.1563 35.4692 29.3129C35.4692 28.4695 35.3139 27.6815 35.0031 26.9491C34.6924 26.2166 34.2596 25.573 33.7047 25.0181C33.1498 24.4632 32.4951 24.0304 31.7404 23.7197C30.9858 23.4089 30.1868 23.2536 29.3433 23.2536ZM17.1581 45.1603C16.1372 45.1603 15.2826 44.8052 14.5946 44.0949C13.9065 43.3847 13.5625 42.5191 13.5625 41.4981V17.1277C13.5625 16.1067 13.9065 15.2411 14.5946 14.5308C15.2826 13.8206 16.1372 13.4655 17.1581 13.4655H41.5285C42.5495 13.4655 43.4151 13.8206 44.1254 14.5308C44.8356 15.2411 45.1908 16.1067 45.1908 17.1277V41.4981C45.1908 42.5191 44.8356 43.3847 44.1254 44.0949C43.4151 44.8052 42.5495 45.1603 41.5285 45.1603H17.1581Z" fill="#0D0813"/>
</svg>
