<svg width="59" height="59" viewBox="0 0 59 59" fill="none" xmlns="http://www.w3.org/2000/svg">
<path d="M0 14.3186C0 6.40934 6.41171 -0.00238037 14.321 -0.00238037H59.0024V44.679C59.0024 52.5883 52.5907 59 44.6814 59H0V14.3186Z" fill="#ED1E79"/>
<path fill-rule="evenodd" clip-rule="evenodd" d="M56.4246 2.57539H14.321C7.83538 2.57539 2.57777 7.833 2.57777 14.3186V56.4222H44.6814C51.167 56.4222 56.4246 51.1646 56.4246 44.679V2.57539ZM14.321 -0.00238037C6.41171 -0.00238037 0 6.40933 0 14.3186V59H44.6814C52.5907 59 59.0024 52.5883 59.0024 44.679V-0.00238037H14.321Z" fill="#ED1E79"/>
<path d="M14.4463 22.5892H21.1804V44.6047H14.4463V22.5892ZM40.2821 23.949C41.6203 24.6829 42.7211 25.7944 43.5844 27.2837C44.4478 28.773 44.8794 30.2947 44.8794 31.8487V44.6047H38.0805V31.8487C38.0805 31.5033 37.951 31.1148 37.692 30.6832C37.433 30.2515 37.1956 29.9709 36.9798 29.8414C36.6344 29.6256 36.1596 29.5176 35.5552 29.5176C34.9509 29.5176 34.476 29.604 34.1307 29.7766L31.3464 31.1364V44.6047H24.5475V22.5892H31.3464V23.6253C32.6846 23.0209 34.1955 22.7403 35.879 22.7835C37.5625 22.8267 39.0302 23.2152 40.2821 23.949ZM17.8134 14.1068C18.763 14.1068 19.5616 14.4306 20.2092 15.0781C20.8567 15.7256 21.1804 16.5242 21.1804 17.4739C21.1804 18.4236 20.8567 19.233 20.2092 19.9021C19.5616 20.5712 18.763 20.9057 17.8134 20.9057C16.8637 20.9057 16.0651 20.5712 15.4176 19.9021C14.77 19.233 14.4463 18.4236 14.4463 17.4739C14.4463 16.5242 14.77 15.7256 15.4176 15.0781C16.0651 14.4306 16.8637 14.1068 17.8134 14.1068Z" fill="#0D0813"/>
</svg>
